M48
METRIC,LZ,000.000
;FILE_FORMAT=3:3
;TYPE=PLATED
;Layer: PTH_Through
;EasyEDA v6.5.51, 2025-11-11 21:27:02
;2e57b4fab426491ebcaac77955a750c1,69688592e0df400aafdf5843d4e091a6,10
;Gerber Generator version 0.2
;Holesize 1 = 0.701 mm
T01C0.701
;Holesize 2 = 0.712 mm
T02C0.712
;Holesize 3 = 0.762 mm
T03C0.762
;Holesize 4 = 0.800 mm
T04C0.800
;Holesize 5 = 0.901 mm
T05C0.901
;Holesize 6 = 0.915 mm
T06C0.915
;Holesize 7 = 1.000 mm
T07C1.000
;Holesize 8 = 1.101 mm
T08C1.101
;Holesize 9 = 1.200 mm
T09C1.200
%
G05
G90
T01
X014435Y041148
X024935Y041148
T02
X037211Y034544
X039751Y034544
X042291Y034544
X044831Y034544
X047371Y034544
X049911Y034544
X052451Y034544
X054991Y034544
X054991Y042164
X052451Y042164
X049911Y042164
X047371Y042164
X044831Y042164
X042291Y042164
X039751Y042164
X037211Y042164
T03
X009652Y053086
X009652Y050546
X009652Y055626
T04
X054125Y081198
X054841Y079330
T05
X036195Y069723
X036195Y072263
X036195Y074803
X036195Y077343
X028575Y069723
X028575Y072263
X028575Y074803
X028575Y077343
T06
X069553Y047879
X080053Y047879
T07
X010573Y030753
X012795Y031985
X014235Y022029
X016499Y023183
X020407Y015136
X022265Y016868
X030011Y009293
X031203Y011535
X040565Y006520
X041223Y008974
X050977Y006997
X050623Y009513
X060628Y010162
X059514Y012444
X069192Y016089
X067460Y017947
X077214Y023747
X075186Y025275
X081161Y031213
X078859Y032287
T08
X066294Y054102
T09
X011227Y063759
X013919Y068067
X076746Y065852
X075400Y068006
M30
