G04 Layer: TopSolderMaskLayer*
G04 EasyEDA v6.5.51, 2025-11-11 21:27:02*
G04 2e57b4fab426491ebcaac77955a750c1,69688592e0df400aafdf5843d4e091a6,10*
G04 Gerber Generator version 0.2*
G04 Scale: 100 percent, Rotated: No, Reflected: No *
G04 Dimensions in millimeters *
G04 leading zeros omitted , absolute positions ,4 integer and 5 decimal *
%FSLAX45Y45*%
%MOMM*%

%AMMACRO1*4,1,8,-0.3092,-1.4322,-0.3504,-1.4228,-1.4322,0.309,-1.4228,0.3501,0.309,1.4322,0.3501,1.4228,1.4322,-0.3092,1.4228,-0.3504,-0.3092,-1.4322,0*%
%AMMACRO2*4,1,8,-0.8711,-0.9008,-0.9008,-0.8708,-0.9008,0.8711,-0.8711,0.9008,0.8708,0.9008,0.9008,0.8711,0.9008,-0.8708,0.8708,-0.9008,-0.8711,-0.9008,0*%
%AMMACRO3*4,1,8,-0.7196,-0.7493,-0.7493,-0.7193,-0.7493,0.7196,-0.7196,0.7493,0.7193,0.7493,0.7493,0.7196,0.7493,-0.7193,0.7193,-0.7493,-0.7196,-0.7493,0*%
%AMMACRO4*4,1,8,-0.7711,-0.8009,-0.8009,-0.7709,-0.8009,0.7711,-0.7711,0.8009,0.7709,0.8009,0.8009,0.7711,0.8009,-0.7709,0.7709,-0.8009,-0.7711,-0.8009,0*%
%ADD10C,1.4016*%
%ADD11C,1.9016*%
%ADD12MACRO1*%
%ADD13C,2.1016*%
%ADD14C,1.9000*%
%ADD15C,0.0141*%
%ADD16MACRO2*%
%ADD17C,1.5016*%
%ADD18C,1.7016*%
%ADD19C,1.6256*%
%ADD20MACRO3*%
%ADD21C,1.4986*%
%ADD22MACRO4*%
%ADD23C,1.6016*%

%LPD*%
D10*
G01*
X5412460Y8119745D03*
G01*
X5484139Y7933029D03*
D11*
G01*
X1122705Y6375882D03*
G01*
X1391894Y6806692D03*
D12*
G01*
X7674597Y6585216D03*
D13*
G01*
X7539990Y6800595D03*
D14*
G01*
X1057325Y3075330D03*
G01*
X1279474Y3198469D03*
G01*
X1423543Y2202942D03*
G01*
X1649856Y2318257D03*
G01*
X2040712Y1513586D03*
G01*
X2226487Y1686813D03*
G01*
X3001086Y929259D03*
G01*
X3120313Y1153540D03*
G01*
X4056532Y652018D03*
G01*
X4122267Y897381D03*
G01*
X5097678Y699744D03*
G01*
X5062321Y951255D03*
G01*
X6062776Y1016152D03*
G01*
X5951423Y1244447D03*
G01*
X6919213Y1608912D03*
G01*
X6745986Y1794687D03*
G01*
X7721422Y2374671D03*
G01*
X7518577Y2527528D03*
G01*
X8116112Y3121329D03*
G01*
X7885912Y3228670D03*
D16*
G01*
X6629412Y5410187D03*
D17*
G01*
X1443507Y4114800D03*
G01*
X2493492Y4114800D03*
D18*
G01*
X6955307Y4787900D03*
G01*
X8005318Y4787900D03*
D19*
G01*
X965200Y5308600D03*
G01*
X965200Y5054600D03*
G01*
X965200Y5562600D03*
D20*
G01*
X3721100Y3454400D03*
D21*
G01*
X3975100Y3454400D03*
G01*
X4229100Y3454400D03*
G01*
X4483100Y3454400D03*
G01*
X4737100Y3454400D03*
G01*
X4991100Y3454400D03*
G01*
X5245100Y3454400D03*
G01*
X5499100Y3454400D03*
G01*
X5499100Y4216400D03*
G01*
X5245100Y4216400D03*
G01*
X4991100Y4216400D03*
G01*
X4737100Y4216400D03*
G01*
X4483100Y4216400D03*
G01*
X4229100Y4216400D03*
G01*
X3975100Y4216400D03*
G01*
X3721100Y4216400D03*
D22*
G01*
X3619500Y6972300D03*
D23*
G01*
X3619500Y7226300D03*
G01*
X3619500Y7480300D03*
G01*
X3619500Y7734300D03*
G01*
X2857500Y6972300D03*
G01*
X2857500Y7226300D03*
G01*
X2857500Y7480300D03*
G01*
X2857500Y7734300D03*
M02*
