G04 Layer: TopSilkscreenLayer*
G04 EasyEDA v6.5.51, 2025-11-11 21:27:02*
G04 2e57b4fab426491ebcaac77955a750c1,69688592e0df400aafdf5843d4e091a6,10*
G04 Gerber Generator version 0.2*
G04 Scale: 100 percent, Rotated: No, Reflected: No *
G04 Dimensions in millimeters *
G04 leading zeros omitted , absolute positions ,4 integer and 5 decimal *
%FSLAX45Y45*%
%MOMM*%

%ADD10C,0.2032*%
%ADD11C,0.1524*%
%ADD12C,0.2540*%
%ADD13C,0.2030*%
%ADD14C,0.2286*%
%ADD15C,0.2000*%
%ADD16C,0.2500*%
%ADD17C,0.6000*%
%ADD18C,0.0134*%
%ADD19C,0.3000*%

%LPD*%
G36*
X2959557Y6521602D02*
G01*
X2904032Y6507378D01*
X2869031Y6485280D01*
X2832709Y6443980D01*
X2804617Y6391351D01*
X2785770Y6323279D01*
X2767380Y6091783D01*
X2749956Y5787644D01*
X2739796Y5465318D01*
X2733598Y5211114D01*
X2748838Y4752594D01*
X2758948Y4530191D01*
X2772410Y4348581D01*
X2775972Y4312259D01*
X4154474Y4312259D01*
X4154982Y4462068D01*
X4175201Y4543806D01*
X4192981Y4591507D01*
X4221581Y4648200D01*
X4255820Y4698695D01*
X4328058Y4766614D01*
X4395114Y4800193D01*
X4449216Y4813909D01*
X4513122Y4813757D01*
X4567580Y4800854D01*
X4612995Y4780940D01*
X4667453Y4742383D01*
X4714595Y4692446D01*
X4757572Y4626000D01*
X4786630Y4557166D01*
X4806238Y4480255D01*
X4816348Y4382719D01*
X4805934Y4279900D01*
X4787087Y4207865D01*
X4761026Y4145686D01*
X4722876Y4080764D01*
X4640224Y3998874D01*
X4575556Y3965092D01*
X4526737Y3951986D01*
X4444644Y3951376D01*
X4392828Y3964889D01*
X4330141Y3996486D01*
X4276750Y4040886D01*
X4225391Y4107992D01*
X4189171Y4180636D01*
X4167124Y4248708D01*
X4154474Y4312259D01*
X2775972Y4312259D01*
X2781706Y4253280D01*
X2799842Y4085285D01*
X2827172Y3881018D01*
X2854147Y3713073D01*
X2881934Y3563264D01*
X2922574Y3377133D01*
X2940710Y3304489D01*
X3895851Y3304489D01*
X3896258Y3477006D01*
X3912412Y3567785D01*
X3944365Y3664915D01*
X3977436Y3721201D01*
X4014927Y3759911D01*
X4045559Y3776167D01*
X4095496Y3776167D01*
X4126128Y3759911D01*
X4163568Y3721201D01*
X4196689Y3664915D01*
X4228642Y3567785D01*
X4244797Y3477006D01*
X4244840Y3458819D01*
X4722164Y3458819D01*
X4733696Y3538931D01*
X4756404Y3626815D01*
X4798060Y3712819D01*
X4853584Y3768140D01*
X4895799Y3779824D01*
X4926228Y3773474D01*
X4964988Y3751173D01*
X5002580Y3703980D01*
X5036566Y3631336D01*
X5055108Y3567785D01*
X5071313Y3486099D01*
X5071160Y3295396D01*
X5055158Y3210509D01*
X5031994Y3136544D01*
X4995418Y3065830D01*
X4955743Y3021736D01*
X4917135Y3002635D01*
X4882794Y3002635D01*
X4851349Y3015792D01*
X4819497Y3040024D01*
X4779060Y3100882D01*
X4752136Y3168294D01*
X4733950Y3240938D01*
X4722672Y3313582D01*
X4722164Y3458819D01*
X4244840Y3458819D01*
X4245203Y3304489D01*
X4233265Y3236417D01*
X4211370Y3152140D01*
X4179265Y3082645D01*
X4143197Y3034893D01*
X4104538Y3008274D01*
X4086402Y3003143D01*
X4039108Y3006445D01*
X3997807Y3034893D01*
X3961790Y3082645D01*
X3929634Y3152140D01*
X3907790Y3236417D01*
X3895851Y3304489D01*
X2940710Y3304489D01*
X2958795Y3231845D01*
X2995218Y3104743D01*
X3035706Y2976270D01*
X3094177Y2816352D01*
X3158744Y2664409D01*
X3237280Y2506167D01*
X3319221Y2369007D01*
X3389274Y2269337D01*
X3457244Y2184247D01*
X3541674Y2092960D01*
X3641547Y2007362D01*
X3761994Y1927402D01*
X3868521Y1873300D01*
X3976268Y1830882D01*
X4100017Y1795627D01*
X4220413Y1772412D01*
X4362500Y1758797D01*
X4594860Y1760118D01*
X4724146Y1767179D01*
X4826355Y1786585D01*
X4935321Y1813966D01*
X5035194Y1846173D01*
X5130495Y1886762D01*
X5207660Y1928368D01*
X5266690Y1964994D01*
X5330240Y2010308D01*
X5407406Y2075484D01*
X5512460Y2183231D01*
X5591911Y2283104D01*
X5685434Y2423820D01*
X5763971Y2565146D01*
X5840018Y2727960D01*
X5908395Y2900476D01*
X5967831Y3078937D01*
X6017818Y3255264D01*
X6059322Y3427069D01*
X6086602Y3554171D01*
X6117590Y3717594D01*
X6140246Y3858310D01*
X6162852Y4021734D01*
X6181191Y4176115D01*
X6199225Y4375810D01*
X6208522Y4502962D01*
X6222034Y4734458D01*
X6232601Y5034076D01*
X6227165Y5596991D01*
X6213246Y5928360D01*
X6195009Y6209792D01*
X6185204Y6313576D01*
X6163157Y6389573D01*
X6131712Y6455816D01*
X6089954Y6494322D01*
X6038494Y6517894D01*
X5970320Y6517792D01*
X5927902Y6498894D01*
X5873902Y6462217D01*
X5729732Y6342989D01*
X5647994Y6294221D01*
X5575858Y6265519D01*
X5523687Y6260795D01*
X5480100Y6271768D01*
X5411978Y6306159D01*
X5273192Y6397498D01*
X5184952Y6442506D01*
X5107787Y6469989D01*
X5057851Y6482080D01*
X4953457Y6482130D01*
X4903520Y6465163D01*
X4839970Y6433718D01*
X4634484Y6289446D01*
X4567580Y6253581D01*
X4508601Y6233820D01*
X4440428Y6237681D01*
X4353458Y6278880D01*
X4281627Y6327292D01*
X4142790Y6425996D01*
X4077309Y6461048D01*
X4009237Y6482029D01*
X3900271Y6481419D01*
X3818585Y6457035D01*
X3691483Y6393942D01*
X3523640Y6284569D01*
X3474161Y6266078D01*
X3419094Y6260896D01*
X3360115Y6276035D01*
X3274567Y6321704D01*
X3223361Y6356502D01*
X3096768Y6463334D01*
X3037789Y6501130D01*
X3001111Y6515404D01*
G37*
D10*
X5485129Y7346950D02*
G01*
X5475986Y7365492D01*
X5457443Y7384034D01*
X5439156Y7393178D01*
X5402072Y7393178D01*
X5383529Y7384034D01*
X5365241Y7365492D01*
X5355843Y7346950D01*
X5346700Y7319263D01*
X5346700Y7273289D01*
X5355843Y7245350D01*
X5365241Y7227062D01*
X5383529Y7208520D01*
X5402072Y7199376D01*
X5439156Y7199376D01*
X5457443Y7208520D01*
X5475986Y7227062D01*
X5485129Y7245350D01*
X5546090Y7328662D02*
G01*
X5546090Y7199376D01*
X5546090Y7273289D02*
G01*
X5555488Y7300976D01*
X5574029Y7319263D01*
X5592318Y7328662D01*
X5620004Y7328662D01*
X5680963Y7273289D02*
G01*
X5791961Y7273289D01*
X5791961Y7291578D01*
X5782563Y7310120D01*
X5773420Y7319263D01*
X5754877Y7328662D01*
X5727191Y7328662D01*
X5708650Y7319263D01*
X5690361Y7300976D01*
X5680963Y7273289D01*
X5680963Y7254747D01*
X5690361Y7227062D01*
X5708650Y7208520D01*
X5727191Y7199376D01*
X5754877Y7199376D01*
X5773420Y7208520D01*
X5791961Y7227062D01*
X5963665Y7328662D02*
G01*
X5963665Y7199376D01*
X5963665Y7300976D02*
G01*
X5945124Y7319263D01*
X5926836Y7328662D01*
X5899150Y7328662D01*
X5880608Y7319263D01*
X5862065Y7300976D01*
X5852922Y7273289D01*
X5852922Y7254747D01*
X5862065Y7227062D01*
X5880608Y7208520D01*
X5899150Y7199376D01*
X5926836Y7199376D01*
X5945124Y7208520D01*
X5963665Y7227062D01*
X6052311Y7393178D02*
G01*
X6052311Y7236205D01*
X6061709Y7208520D01*
X6079997Y7199376D01*
X6098540Y7199376D01*
X6024625Y7328662D02*
G01*
X6089395Y7328662D01*
X6159500Y7273289D02*
G01*
X6270243Y7273289D01*
X6270243Y7291578D01*
X6261100Y7310120D01*
X6251956Y7319263D01*
X6233413Y7328662D01*
X6205727Y7328662D01*
X6187186Y7319263D01*
X6168643Y7300976D01*
X6159500Y7273289D01*
X6159500Y7254747D01*
X6168643Y7227062D01*
X6187186Y7208520D01*
X6205727Y7199376D01*
X6233413Y7199376D01*
X6251956Y7208520D01*
X6270243Y7227062D01*
X6442202Y7393178D02*
G01*
X6442202Y7199376D01*
X6442202Y7300976D02*
G01*
X6423659Y7319263D01*
X6405118Y7328662D01*
X6377431Y7328662D01*
X6358890Y7319263D01*
X6340602Y7300976D01*
X6331204Y7273289D01*
X6331204Y7254747D01*
X6340602Y7227062D01*
X6358890Y7208520D01*
X6377431Y7199376D01*
X6405118Y7199376D01*
X6423659Y7208520D01*
X6442202Y7227062D01*
X6645402Y7393178D02*
G01*
X6645402Y7199376D01*
X6645402Y7393178D02*
G01*
X6728459Y7393178D01*
X6756145Y7384034D01*
X6765290Y7374889D01*
X6774688Y7356347D01*
X6774688Y7337805D01*
X6765290Y7319263D01*
X6756145Y7310120D01*
X6728459Y7300976D01*
X6645402Y7300976D02*
G01*
X6728459Y7300976D01*
X6756145Y7291578D01*
X6765290Y7282434D01*
X6774688Y7263892D01*
X6774688Y7236205D01*
X6765290Y7217663D01*
X6756145Y7208520D01*
X6728459Y7199376D01*
X6645402Y7199376D01*
X6844791Y7328662D02*
G01*
X6900163Y7199376D01*
X6955790Y7328662D02*
G01*
X6900163Y7199376D01*
X6881875Y7162292D01*
X6863334Y7143750D01*
X6844791Y7134605D01*
X6835647Y7134605D01*
X5475986Y7060692D02*
G01*
X5457443Y7079234D01*
X5429758Y7088378D01*
X5392927Y7088378D01*
X5365241Y7079234D01*
X5346700Y7060692D01*
X5346700Y7042150D01*
X5355843Y7023862D01*
X5365241Y7014463D01*
X5383529Y7005320D01*
X5439156Y6986778D01*
X5457443Y6977634D01*
X5466841Y6968489D01*
X5475986Y6949947D01*
X5475986Y6922262D01*
X5457443Y6903720D01*
X5429758Y6894576D01*
X5392927Y6894576D01*
X5365241Y6903720D01*
X5346700Y6922262D01*
X5647690Y7023862D02*
G01*
X5647690Y6894576D01*
X5647690Y6996176D02*
G01*
X5629402Y7014463D01*
X5610859Y7023862D01*
X5583174Y7023862D01*
X5564631Y7014463D01*
X5546090Y6996176D01*
X5536945Y6968489D01*
X5536945Y6949947D01*
X5546090Y6922262D01*
X5564631Y6903720D01*
X5583174Y6894576D01*
X5610859Y6894576D01*
X5629402Y6903720D01*
X5647690Y6922262D01*
X5708650Y7023862D02*
G01*
X5708650Y6894576D01*
X5708650Y6986778D02*
G01*
X5736590Y7014463D01*
X5754877Y7023862D01*
X5782563Y7023862D01*
X5801106Y7014463D01*
X5810250Y6986778D01*
X5810250Y6894576D01*
X5810250Y6986778D02*
G01*
X5838190Y7014463D01*
X5856477Y7023862D01*
X5884163Y7023862D01*
X5902706Y7014463D01*
X5911850Y6986778D01*
X5911850Y6894576D01*
X5972809Y7088378D02*
G01*
X5982208Y7079234D01*
X5991352Y7088378D01*
X5982208Y7097776D01*
X5972809Y7088378D01*
X5982208Y7023862D02*
G01*
X5982208Y6894576D01*
X6052311Y7023862D02*
G01*
X6052311Y6894576D01*
X6052311Y6986778D02*
G01*
X6079997Y7014463D01*
X6098540Y7023862D01*
X6126225Y7023862D01*
X6144768Y7014463D01*
X6153911Y6986778D01*
X6153911Y6894576D01*
X6214872Y7023862D02*
G01*
X6214872Y6931405D01*
X6224270Y6903720D01*
X6242558Y6894576D01*
X6270243Y6894576D01*
X6288786Y6903720D01*
X6316472Y6931405D01*
X6316472Y7023862D02*
G01*
X6316472Y6894576D01*
X6377431Y7023862D02*
G01*
X6377431Y6894576D01*
X6377431Y6968489D02*
G01*
X6386829Y6996176D01*
X6405118Y7014463D01*
X6423659Y7023862D01*
X6451345Y7023862D01*
D11*
X5812602Y8106496D02*
G01*
X5820412Y8115206D01*
X5826401Y8128660D01*
X5827504Y8139965D01*
X5820039Y8159412D01*
X5811565Y8167314D01*
X5798111Y8173303D01*
X5786475Y8174550D01*
X5769955Y8173651D01*
X5745767Y8164365D01*
X5733122Y8154070D01*
X5725312Y8145358D01*
X5719320Y8131903D01*
X5718312Y8120362D01*
X5725774Y8100915D01*
X5734159Y8093252D01*
X5747613Y8087263D01*
X5759246Y8086013D01*
X5829632Y8076303D02*
G01*
X5838344Y8068492D01*
X5858360Y8059580D01*
X5756633Y8020530D01*
X956101Y6793704D02*
G01*
X944443Y6794703D01*
X930089Y6791388D01*
X920402Y6785465D01*
X909363Y6767799D01*
X908154Y6756275D01*
X911466Y6741927D01*
X917468Y6731883D01*
X928131Y6719232D01*
X950104Y6705500D01*
X965939Y6701596D01*
X977595Y6700606D01*
X991946Y6703915D01*
X1001770Y6710057D01*
X1012812Y6727720D01*
X1013884Y6739026D01*
X1010569Y6753377D01*
X1004564Y6763423D01*
X976962Y6827093D02*
G01*
X972654Y6829783D01*
X966650Y6839828D01*
X964816Y6846963D01*
X966028Y6858485D01*
X977069Y6876148D01*
X986891Y6882287D01*
X994107Y6883768D01*
X1005766Y6882772D01*
X1014597Y6877258D01*
X1020602Y6867215D01*
X1028222Y6850169D01*
X1044707Y6778769D01*
X1083200Y6840377D01*
X7397765Y6546992D02*
G01*
X7490172Y6604734D01*
X7359268Y6608597D02*
G01*
X7451676Y6666341D01*
X7441707Y6574449D02*
G01*
X7403211Y6636054D01*
X7358761Y6648714D02*
G01*
X7348717Y6654718D01*
X7327234Y6659864D01*
X7419642Y6717606D01*
X952408Y3526558D02*
G01*
X1005235Y3431252D01*
X1005235Y3431252D02*
G01*
X1059662Y3461423D01*
X1036828Y3573350D02*
G01*
X1089654Y3478047D01*
X1036828Y3573350D02*
G01*
X1095921Y3606106D01*
X1061948Y3528029D02*
G01*
X1098382Y3548227D01*
X1089654Y3478047D02*
G01*
X1148748Y3510803D01*
X1125913Y3622730D02*
G01*
X1178740Y3527427D01*
X1125913Y3622730D02*
G01*
X1157902Y3640462D01*
X1173914Y3643530D01*
X1188072Y3639472D01*
X1197564Y3632827D01*
X1209862Y3621638D01*
X1222425Y3598979D01*
X1225270Y3582842D01*
X1225877Y3571270D01*
X1221818Y3557112D01*
X1210731Y3545159D01*
X1178740Y3527427D01*
X1229758Y3656479D02*
G01*
X1236281Y3666192D01*
X1242319Y3687257D01*
X1295145Y3591953D01*
X1334439Y2657558D02*
G01*
X1383908Y2560467D01*
X1383908Y2560467D02*
G01*
X1439357Y2588719D01*
X1420439Y2701376D02*
G01*
X1469910Y2604287D01*
X1420439Y2701376D02*
G01*
X1480639Y2732049D01*
X1443964Y2655209D02*
G01*
X1481079Y2674119D01*
X1469910Y2604287D02*
G01*
X1530108Y2634960D01*
X1511193Y2747617D02*
G01*
X1560662Y2650528D01*
X1511193Y2747617D02*
G01*
X1543781Y2764223D01*
X1559892Y2766730D01*
X1573900Y2762178D01*
X1583154Y2755206D01*
X1595056Y2743596D01*
X1606819Y2720512D01*
X1609100Y2704284D01*
X1609300Y2692699D01*
X1604751Y2678694D01*
X1593250Y2667132D01*
X1560662Y2650528D01*
X1622986Y2775501D02*
G01*
X1620680Y2780027D01*
X1620705Y2791729D01*
X1622808Y2798787D01*
X1629780Y2808041D01*
X1648340Y2817497D01*
X1659925Y2817698D01*
X1666872Y2815252D01*
X1676354Y2808394D01*
X1681081Y2799115D01*
X1681055Y2787416D01*
X1678810Y2768881D01*
X1656166Y2699189D01*
X1720893Y2732171D01*
X1829757Y1926028D02*
G01*
X1904072Y1846336D01*
X1904072Y1846336D02*
G01*
X1949584Y1888777D01*
X1900349Y1991855D02*
G01*
X1974664Y1912162D01*
X1900349Y1991855D02*
G01*
X1949762Y2037935D01*
X1935688Y1953961D02*
G01*
X1966153Y1982370D01*
X1974664Y1912162D02*
G01*
X2024077Y1958240D01*
X1974839Y2061321D02*
G01*
X2049155Y1981626D01*
X1974839Y2061321D02*
G01*
X2001591Y2086264D01*
X2016386Y2093117D01*
X2031105Y2092601D01*
X2041923Y2088451D01*
X2056564Y2080572D01*
X2074232Y2061624D01*
X2080900Y2046653D01*
X2084285Y2035573D01*
X2083772Y2020854D01*
X2075903Y2006572D01*
X2049155Y1981626D01*
X2060849Y2141524D02*
G01*
X2102645Y2180501D01*
X2108205Y2128728D01*
X2119538Y2139294D01*
X2130618Y2142683D01*
X2137984Y2142604D01*
X2152439Y2134552D01*
X2159541Y2126935D01*
X2166393Y2112139D01*
X2165880Y2097420D01*
X2157826Y2082965D01*
X2146495Y2072398D01*
X2131700Y2065548D01*
X2124334Y2065624D01*
X2113516Y2069777D01*
X2667332Y1250556D02*
G01*
X2763542Y1199400D01*
X2763542Y1199400D02*
G01*
X2792757Y1254345D01*
X2712646Y1335778D02*
G01*
X2808856Y1284622D01*
X2712646Y1335778D02*
G01*
X2744365Y1395435D01*
X2758396Y1311452D02*
G01*
X2777952Y1348231D01*
X2808856Y1284622D02*
G01*
X2840575Y1344277D01*
X2760464Y1425712D02*
G01*
X2856674Y1374554D01*
X2760464Y1425712D02*
G01*
X2777634Y1458005D01*
X2789394Y1469301D01*
X2803479Y1473606D01*
X2815059Y1473202D01*
X2831467Y1470520D01*
X2854342Y1458356D01*
X2865518Y1446372D01*
X2872328Y1436997D01*
X2876633Y1422915D01*
X2873847Y1406850D01*
X2856674Y1374554D01*
X2835112Y1566103D02*
G01*
X2874926Y1486247D01*
X2911533Y1555099D01*
X2835112Y1566103D02*
G01*
X2931322Y1514947D01*
X3659065Y890008D02*
G01*
X3764318Y861806D01*
X3764318Y861806D02*
G01*
X3780424Y921915D01*
X3684046Y983239D02*
G01*
X3789299Y955037D01*
X3684046Y983239D02*
G01*
X3701531Y1048501D01*
X3734097Y969827D02*
G01*
X3744876Y1010064D01*
X3789299Y955037D02*
G01*
X3806786Y1020297D01*
X3710406Y1081623D02*
G01*
X3815661Y1053419D01*
X3710406Y1081623D02*
G01*
X3719873Y1116952D01*
X3728791Y1130604D01*
X3741544Y1137968D01*
X3752918Y1140178D01*
X3769512Y1141255D01*
X3794536Y1134549D01*
X3808122Y1125387D01*
X3816865Y1117785D01*
X3824231Y1105029D01*
X3825128Y1088750D01*
X3815661Y1053419D01*
X3754257Y1245268D02*
G01*
X3740845Y1195217D01*
X3784607Y1177968D01*
X3781082Y1184435D01*
X3779939Y1200782D01*
X3783949Y1215748D01*
X3793177Y1229578D01*
X3805687Y1237007D01*
X3822212Y1237841D01*
X3832273Y1235143D01*
X3845923Y1226228D01*
X3853286Y1213472D01*
X3854119Y1196947D01*
X3850109Y1181981D01*
X3841191Y1168328D01*
X3834904Y1164493D01*
X3823530Y1162281D01*
X4638819Y763496D02*
G01*
X4746724Y778662D01*
X4746724Y778662D02*
G01*
X4738065Y840285D01*
X4625385Y859076D02*
G01*
X4733292Y874242D01*
X4625385Y859076D02*
G01*
X4615982Y925982D01*
X4676698Y866287D02*
G01*
X4670899Y907539D01*
X4733292Y874242D02*
G01*
X4723889Y941148D01*
X4611212Y959939D02*
G01*
X4719116Y975105D01*
X4611212Y959939D02*
G01*
X4606119Y996160D01*
X4608995Y1012210D01*
X4617859Y1023973D01*
X4627463Y1030452D01*
X4642317Y1037925D01*
X4667971Y1041532D01*
X4684057Y1038405D01*
X4695078Y1034823D01*
X4706838Y1025961D01*
X4714026Y1011323D01*
X4719116Y975105D01*
X4602975Y1129865D02*
G01*
X4593371Y1123386D01*
X4590531Y1107084D01*
X4591982Y1096771D01*
X4599167Y1082133D01*
X4616211Y1074013D01*
X4642573Y1072588D01*
X4668230Y1076195D01*
X4688149Y1084122D01*
X4697011Y1095885D01*
X4699886Y1111935D01*
X4699144Y1117219D01*
X4691956Y1131854D01*
X4680196Y1140716D01*
X4664110Y1143843D01*
X4658827Y1143101D01*
X4644227Y1135661D01*
X4635362Y1123901D01*
X4632490Y1107851D01*
X4633231Y1102568D01*
X4640417Y1087932D01*
X4652180Y1079068D01*
X4668230Y1076195D01*
X5606674Y934999D02*
G01*
X5704611Y982766D01*
X5704611Y982766D02*
G01*
X5677331Y1038697D01*
X5564360Y1021750D02*
G01*
X5662300Y1069517D01*
X5564360Y1021750D02*
G01*
X5534743Y1082476D01*
X5610933Y1044465D02*
G01*
X5592673Y1081905D01*
X5662300Y1069517D02*
G01*
X5632681Y1130244D01*
X5519712Y1113297D02*
G01*
X5617649Y1161064D01*
X5519712Y1113297D02*
G01*
X5503677Y1146169D01*
X5501452Y1162324D01*
X5506245Y1176248D01*
X5513379Y1185379D01*
X5525195Y1197076D01*
X5548480Y1208435D01*
X5564746Y1210431D01*
X5576331Y1210431D01*
X5590258Y1205636D01*
X5601614Y1193937D01*
X5617649Y1161064D01*
X5440878Y1274927D02*
G01*
X5561530Y1276123D01*
X5472722Y1209636D02*
G01*
X5440878Y1274927D01*
X6506771Y1397957D02*
G01*
X6586463Y1472272D01*
X6586463Y1472272D02*
G01*
X6544022Y1517784D01*
X6440944Y1468549D02*
G01*
X6520637Y1542864D01*
X6440944Y1468549D02*
G01*
X6394864Y1517962D01*
X6478838Y1503888D02*
G01*
X6450429Y1534353D01*
X6520637Y1542864D02*
G01*
X6474559Y1592277D01*
X6371478Y1543039D02*
G01*
X6451173Y1617355D01*
X6371478Y1543039D02*
G01*
X6346535Y1569791D01*
X6339682Y1584586D01*
X6340198Y1599305D01*
X6344348Y1610123D01*
X6352227Y1624764D01*
X6371175Y1642432D01*
X6386146Y1649100D01*
X6397226Y1652485D01*
X6411945Y1651972D01*
X6426227Y1644103D01*
X6451173Y1617355D01*
X6280708Y1640380D02*
G01*
X6294991Y1632513D01*
X6306243Y1635714D01*
X6313860Y1642816D01*
X6317838Y1653819D01*
X6314638Y1665074D01*
X6304320Y1683585D01*
X6297297Y1698569D01*
X6297810Y1713285D01*
X6301963Y1724103D01*
X6313479Y1734845D01*
X6324561Y1738231D01*
X6331915Y1737794D01*
X6346195Y1729927D01*
X6360401Y1714695D01*
X6367251Y1699900D01*
X6367175Y1692534D01*
X6363022Y1681716D01*
X6351506Y1670974D01*
X6340424Y1667588D01*
X6325707Y1668101D01*
X6311425Y1675970D01*
X6293505Y1687738D01*
X6282502Y1691716D01*
X6271247Y1688515D01*
X6263629Y1681413D01*
X6259652Y1670410D01*
X6266502Y1655612D01*
X6280708Y1640380D01*
X7351882Y2095294D02*
G01*
X7417460Y2182319D01*
X7417460Y2182319D02*
G01*
X7367760Y2219769D01*
X7274796Y2153381D02*
G01*
X7340373Y2240406D01*
X7274796Y2153381D02*
G01*
X7220838Y2194044D01*
X7305982Y2194763D02*
G01*
X7272713Y2219832D01*
X7340373Y2240406D02*
G01*
X7286416Y2281067D01*
X7193452Y2214679D02*
G01*
X7259030Y2301704D01*
X7193452Y2214679D02*
G01*
X7164242Y2236690D01*
X7154925Y2250074D01*
X7152876Y2264656D01*
X7155086Y2276030D01*
X7160303Y2291819D01*
X7175896Y2312509D01*
X7189480Y2321674D01*
X7199805Y2326934D01*
X7214387Y2328981D01*
X7229820Y2323716D01*
X7259030Y2301704D01*
X7075749Y2348854D02*
G01*
X7089333Y2358019D01*
X7103917Y2360068D01*
X7119503Y2355004D01*
X7123762Y2351796D01*
X7132927Y2338209D01*
X7134976Y2323625D01*
X7129708Y2308194D01*
X7126650Y2304138D01*
X7113117Y2294618D01*
X7098532Y2292568D01*
X7083099Y2297836D01*
X7078840Y2301046D01*
X7069523Y2314427D01*
X7067473Y2329012D01*
X7075749Y2348854D01*
X7091342Y2369548D01*
X7111344Y2387231D01*
X7128987Y2393337D01*
X7144418Y2388069D01*
X7152736Y2381803D01*
X7162053Y2368420D01*
X7160044Y2356893D01*
X7812717Y2771226D02*
G01*
X7858767Y2869981D01*
X7858767Y2869981D02*
G01*
X7802369Y2896280D01*
X7725239Y2812016D02*
G01*
X7771290Y2910773D01*
X7725239Y2812016D02*
G01*
X7664005Y2840570D01*
X7747137Y2858978D02*
G01*
X7709385Y2876583D01*
X7771290Y2910773D02*
G01*
X7710058Y2939326D01*
X7632928Y2855061D02*
G01*
X7678978Y2953819D01*
X7632928Y2855061D02*
G01*
X7599779Y2870520D01*
X7587884Y2881670D01*
X7582847Y2895511D01*
X7582644Y2907096D01*
X7584465Y2923623D01*
X7595415Y2947103D01*
X7606797Y2958891D01*
X7615801Y2966184D01*
X7629641Y2971220D01*
X7645831Y2969275D01*
X7678978Y2953819D01*
X7544584Y2919237D02*
G01*
X7532893Y2918805D01*
X7512304Y2911309D01*
X7558354Y3010067D01*
X7452911Y2939006D02*
G01*
X7469329Y2936953D01*
X7485423Y2946826D01*
X7500978Y2968160D01*
X7507526Y2982201D01*
X7513977Y3008058D01*
X7511087Y3026503D01*
X7498961Y3037761D01*
X7489522Y3042163D01*
X7473335Y3044108D01*
X7457348Y3034466D01*
X7441686Y3012902D01*
X7435138Y2998861D01*
X7428793Y2973232D01*
X7431577Y2954558D01*
X7443472Y2943407D01*
X7452911Y2939006D01*
X6629400Y5667755D02*
G01*
X6629400Y5558789D01*
X6629400Y5667755D02*
G01*
X6676136Y5667755D01*
X6691629Y5662676D01*
X6696963Y5657342D01*
X6702043Y5646928D01*
X6702043Y5631434D01*
X6696963Y5621020D01*
X6691629Y5615939D01*
X6676136Y5610605D01*
X6629400Y5610605D01*
X6736334Y5646928D02*
G01*
X6746747Y5652262D01*
X6762495Y5667755D01*
X6762495Y5558789D01*
X1968500Y4382515D02*
G01*
X1968500Y4273550D01*
X1968500Y4382515D02*
G01*
X2015236Y4382515D01*
X2030729Y4377436D01*
X2036063Y4372102D01*
X2041143Y4361687D01*
X2041143Y4351273D01*
X2036063Y4340860D01*
X2030729Y4335779D01*
X2015236Y4330700D01*
X1968500Y4330700D01*
X2004822Y4330700D02*
G01*
X2041143Y4273550D01*
X2075434Y4361687D02*
G01*
X2085847Y4367021D01*
X2101595Y4382515D01*
X2101595Y4273550D01*
X7463294Y5055615D02*
G01*
X7463294Y4946650D01*
X7463294Y5055615D02*
G01*
X7510030Y5055615D01*
X7525524Y5050536D01*
X7530858Y5045202D01*
X7535938Y5034787D01*
X7535938Y5024373D01*
X7530858Y5013960D01*
X7525524Y5008879D01*
X7510030Y5003800D01*
X7463294Y5003800D01*
X7499616Y5003800D02*
G01*
X7535938Y4946650D01*
X7575562Y5029707D02*
G01*
X7575562Y5034787D01*
X7580642Y5045202D01*
X7585976Y5050536D01*
X7596390Y5055615D01*
X7616964Y5055615D01*
X7627378Y5050536D01*
X7632712Y5045202D01*
X7637792Y5034787D01*
X7637792Y5024373D01*
X7632712Y5013960D01*
X7622298Y4998465D01*
X7570228Y4946650D01*
X7643126Y4946650D01*
X971900Y4709668D02*
G01*
X971900Y4818634D01*
X971900Y4709668D02*
G01*
X925164Y4709668D01*
X909670Y4714747D01*
X904336Y4720081D01*
X899256Y4730495D01*
X899256Y4740910D01*
X904336Y4751323D01*
X909670Y4756404D01*
X925164Y4761484D01*
X971900Y4761484D01*
X935578Y4761484D02*
G01*
X899256Y4818634D01*
X854552Y4709668D02*
G01*
X797402Y4709668D01*
X828390Y4751323D01*
X812896Y4751323D01*
X802482Y4756404D01*
X797402Y4761484D01*
X792068Y4777231D01*
X792068Y4787645D01*
X797402Y4803139D01*
X807816Y4813554D01*
X823310Y4818634D01*
X838804Y4818634D01*
X854552Y4813554D01*
X859632Y4808473D01*
X864966Y4798060D01*
X4610100Y4433315D02*
G01*
X4610100Y4355337D01*
X4615179Y4339844D01*
X4625593Y4329429D01*
X4641341Y4324350D01*
X4651756Y4324350D01*
X4667250Y4329429D01*
X4677663Y4339844D01*
X4682743Y4355337D01*
X4682743Y4433315D01*
X4717034Y4412487D02*
G01*
X4727447Y4417821D01*
X4743195Y4433315D01*
X4743195Y4324350D01*
X2615184Y7315200D02*
G01*
X2693161Y7315200D01*
X2708656Y7320279D01*
X2719070Y7330694D01*
X2724150Y7346442D01*
X2724150Y7356855D01*
X2719070Y7372350D01*
X2708656Y7382763D01*
X2693161Y7387844D01*
X2615184Y7387844D01*
X2641091Y7427468D02*
G01*
X2636011Y7427468D01*
X2625597Y7432547D01*
X2620263Y7437881D01*
X2615184Y7448295D01*
X2615184Y7468870D01*
X2620263Y7479284D01*
X2625597Y7484618D01*
X2636011Y7489697D01*
X2646425Y7489697D01*
X2656840Y7484618D01*
X2672334Y7474204D01*
X2724150Y7422134D01*
X2724150Y7495031D01*
G36*
X5666740Y7918094D02*
G01*
X5358434Y7799730D01*
X5370982Y7794294D01*
X5377383Y7791805D01*
X5390337Y7787487D01*
X5403545Y7783982D01*
X5416905Y7781239D01*
X5423662Y7780121D01*
X5437276Y7778597D01*
X5450890Y7777886D01*
X5464556Y7777988D01*
X5478221Y7778902D01*
X5491784Y7780629D01*
X5505196Y7783169D01*
X5518454Y7786522D01*
X5531459Y7790637D01*
X5544210Y7795564D01*
X5556656Y7801203D01*
X5568746Y7807604D01*
X5580430Y7814665D01*
X5591657Y7822488D01*
X5602427Y7830921D01*
X5612638Y7839964D01*
X5622290Y7849666D01*
X5631383Y7859877D01*
X5639816Y7870647D01*
X5647588Y7881874D01*
X5654700Y7893558D01*
X5661101Y7905648D01*
G37*
D12*
X5533991Y8221692D02*
G01*
X5570402Y8126841D01*
X5599178Y8191431D02*
G01*
X5504327Y8155020D01*
X875723Y6358069D02*
G01*
X1299659Y7036503D01*
X1299659Y7036503D02*
G01*
X1638876Y6824530D01*
X1638876Y6824530D02*
G01*
X1214940Y6146096D01*
X1214940Y6146096D02*
G01*
X875723Y6358069D01*
D10*
X7364999Y6841004D02*
G01*
X7580401Y6975604D01*
X7849600Y6544795D01*
X7634198Y6410195D01*
X7533248Y6571749D01*
D13*
X7364999Y6841004D02*
G01*
X7533248Y6571749D01*
D12*
X879055Y3146475D02*
G01*
X1023716Y2885506D01*
X1247868Y2280267D02*
G01*
X1383329Y2014407D01*
X1850534Y1539494D02*
G01*
X2054031Y1321269D01*
X2812821Y891844D02*
G01*
X3076277Y751761D01*
X3881518Y573217D02*
G01*
X4169732Y495988D01*
X4967368Y558807D02*
G01*
X5262846Y600334D01*
X5982393Y841855D02*
G01*
X6250576Y972657D01*
X6893306Y1418734D02*
G01*
X7111530Y1622231D01*
X7728938Y2182878D02*
G01*
X7908508Y2421176D01*
X8163323Y2935287D02*
G01*
X8289424Y3205713D01*
X6756400Y5537200D02*
G01*
X6756400Y5283200D01*
X6502400Y5283200D01*
X6502400Y5537200D01*
X6756400Y5537200D01*
X1536621Y4114800D02*
G01*
X1643499Y4114800D01*
X2293500Y4114396D02*
G01*
X2400378Y4114396D01*
X1643499Y3999798D02*
G01*
X1643499Y4229801D01*
X1643499Y4229801D02*
G01*
X2293500Y4229801D01*
X2293500Y4226798D02*
G01*
X2293500Y4002801D01*
X2293500Y3999798D02*
G01*
X1643499Y3999798D01*
X7150094Y4787900D02*
G01*
X7073894Y4787900D01*
X7810494Y4787900D02*
G01*
X7886694Y4787900D01*
X7162787Y4902200D02*
G01*
X7810487Y4902200D01*
X7810487Y4673600D01*
X7162787Y4673600D01*
X7162787Y4902200D01*
X832200Y5028184D02*
G01*
X794100Y5028184D01*
X756000Y5028184D01*
X794100Y5028184D01*
X1238600Y4826000D02*
G01*
X705200Y4826000D01*
X705200Y5791200D01*
X1238600Y5791200D01*
X1238600Y4826000D01*
X1223208Y4833594D02*
G01*
X1203218Y4833594D01*
X1203218Y4909794D01*
X1223208Y4909794D01*
X1223208Y4833594D01*
X1223208Y5707379D02*
G01*
X1203218Y5707379D01*
X1203218Y5783579D01*
X1223208Y5783579D01*
X1223208Y5707379D01*
D14*
X3594100Y3581400D02*
G01*
X5626100Y3581400D01*
X5626100Y4089400D01*
X3594100Y4089400D01*
X3594100Y3581400D01*
D15*
X3174499Y6859300D02*
G01*
X3175000Y6859270D01*
X2973577Y6859270D01*
X2973577Y7849362D01*
X3503422Y7849362D01*
X3503422Y6859270D01*
X3302000Y6859270D01*
X3302500Y6859300D01*
D12*
G75*
G01*
X878642Y3146806D02*
G02*
X879056Y3146476I-193J-666D01*
G75*
G01*
X1025248Y2884627D02*
G03*
X878627Y3146748I145379J253388D01*
G75*
G01*
X1247465Y2280613D02*
G02*
X1247869Y2280267I-214J-660D01*
G75*
G01*
X1384831Y2013476D02*
G03*
X1247447Y2280554I154134J248159D01*
G75*
G01*
X1850052Y1539712D02*
G02*
X1850535Y1539494I-23J-693D01*
G75*
G01*
X2055731Y1320790D02*
G03*
X1850052Y1539654I79760J281031D01*
G75*
G01*
X2812293Y891896D02*
G02*
X2812821Y891845I203J-663D01*
G75*
G01*
X3078041Y751860D02*
G03*
X2812313Y891837I-16080J291688D01*
G75*
G01*
X3880990Y573146D02*
G02*
X3881519Y573217I350J-599D01*
G75*
G01*
X4171429Y496481D02*
G03*
X3881023Y573098I-81281J280595D01*
G75*
G01*
X4966912Y558538D02*
G02*
X4967369Y558808I553J-417D01*
G75*
G01*
X5264216Y601449D02*
G03*
X4966960Y558503I-184458J226529D01*
G75*
G01*
X5982043Y841459D02*
G02*
X5982393Y841855I655J-227D01*
G75*
G01*
X6251534Y974141D02*
G03*
X5982099Y841441I-245430J158443D01*
G75*
G01*
X6893088Y1418252D02*
G02*
X6893306Y1418735I693J-23D01*
G75*
G01*
X7112010Y1623931D02*
G03*
X6893146Y1418252I-281031J79760D01*
G75*
G01*
X7728806Y2182363D02*
G02*
X7728938Y2182879I686J99D01*
G75*
G01*
X7908689Y2422934D02*
G03*
X7728864Y2182373I-290612J29747D01*
G75*
G01*
X8163301Y2934759D02*
G02*
X8163324Y2935288I652J237D01*
G75*
G01*
X8289237Y3207471D02*
G03*
X8163357Y2934780I-290447J-31324D01*
G75*
G01*
X740133Y5028184D02*
G03*
X740133Y5029200I53998J508D01*
D15*
G75*
G01*
X3302500Y6859300D02*
G03*
X3175500Y6859300I-63500J0D01*
D16*
G75*
G01*
X3619500Y6829806D02*
G03*
X3619246Y6829806I-127J12499D01*
D17*
G75*
G01*
X3403600Y6908292D02*
G03*
X3403092Y6908292I-254J29999D01*
D19*
G75*
G01
X5698312Y8026400D02*
G03X5698312Y8026400I-250012J0D01*
D12*
G75*
G01
X3746500Y3657600D02*
G03X3746500Y3657600I-25400J0D01*
M02*
