G04 Layer: BottomSilkscreenLayer*
G04 EasyEDA v6.5.51, 2025-10-31 17:05:29*
G04 2c13a8696d224139b0bc35c9be8cf329,69688592e0df400aafdf5843d4e091a6,10*
G04 Gerber Generator version 0.2*
G04 Scale: 100 percent, Rotated: No, Reflected: No *
G04 Dimensions in millimeters *
G04 leading zeros omitted , absolute positions ,4 integer and 5 decimal *
%FSLAX45Y45*%
%MOMM*%

%ADD10C,0.2032*%
%ADD11C,0.0145*%

%LPD*%
D10*
X8252691Y6057437D02*
G01*
X8271164Y6075911D01*
X8298873Y6085146D01*
X8335817Y6085146D01*
X8363526Y6075911D01*
X8382000Y6057437D01*
X8382000Y6038964D01*
X8372764Y6020493D01*
X8363526Y6011255D01*
X8345055Y6002020D01*
X8289635Y5983546D01*
X8271164Y5974311D01*
X8261926Y5965075D01*
X8252691Y5946602D01*
X8252691Y5918893D01*
X8271164Y5900420D01*
X8298873Y5891184D01*
X8335817Y5891184D01*
X8363526Y5900420D01*
X8382000Y5918893D01*
X8145548Y6020493D02*
G01*
X8164022Y6011255D01*
X8182495Y5992784D01*
X8191731Y5965075D01*
X8191731Y5946602D01*
X8182495Y5918893D01*
X8164022Y5900420D01*
X8145548Y5891184D01*
X8117840Y5891184D01*
X8099366Y5900420D01*
X8080895Y5918893D01*
X8071657Y5946602D01*
X8071657Y5965075D01*
X8080895Y5992784D01*
X8099366Y6011255D01*
X8117840Y6020493D01*
X8145548Y6020493D01*
X8010697Y6020493D02*
G01*
X8010697Y5928128D01*
X8001462Y5900420D01*
X7982988Y5891184D01*
X7955279Y5891184D01*
X7936806Y5900420D01*
X7909097Y5928128D01*
X7909097Y6020493D02*
G01*
X7909097Y5891184D01*
X7737302Y5992784D02*
G01*
X7755775Y6011255D01*
X7774246Y6020493D01*
X7801955Y6020493D01*
X7820428Y6011255D01*
X7838902Y5992784D01*
X7848137Y5965075D01*
X7848137Y5946602D01*
X7838902Y5918893D01*
X7820428Y5900420D01*
X7801955Y5891184D01*
X7774246Y5891184D01*
X7755775Y5900420D01*
X7737302Y5918893D01*
X7676342Y6020493D02*
G01*
X7676342Y5891184D01*
X7676342Y5965075D02*
G01*
X7667104Y5992784D01*
X7648633Y6011255D01*
X7630159Y6020493D01*
X7602451Y6020493D01*
X7541491Y5965075D02*
G01*
X7430655Y5965075D01*
X7430655Y5983546D01*
X7439891Y6002020D01*
X7449126Y6011255D01*
X7467600Y6020493D01*
X7495308Y6020493D01*
X7513782Y6011255D01*
X7532255Y5992784D01*
X7541491Y5965075D01*
X7541491Y5946602D01*
X7532255Y5918893D01*
X7513782Y5900420D01*
X7495308Y5891184D01*
X7467600Y5891184D01*
X7449126Y5900420D01*
X7430655Y5918893D01*
X7360457Y6002020D02*
G01*
X7369695Y5992784D01*
X7360457Y5983546D01*
X7351222Y5992784D01*
X7360457Y6002020D01*
X7360457Y5937364D02*
G01*
X7369695Y5928128D01*
X7360457Y5918893D01*
X7351222Y5928128D01*
X7360457Y5937364D01*
X7148022Y6085146D02*
G01*
X7148022Y5891184D01*
X7148022Y5983546D02*
G01*
X7120313Y6011255D01*
X7101840Y6020493D01*
X7074131Y6020493D01*
X7055657Y6011255D01*
X7046422Y5983546D01*
X7046422Y5891184D01*
X6957753Y6085146D02*
G01*
X6957753Y5928128D01*
X6948515Y5900420D01*
X6930044Y5891184D01*
X6911571Y5891184D01*
X6985462Y6020493D02*
G01*
X6920806Y6020493D01*
X6822902Y6085146D02*
G01*
X6822902Y5928128D01*
X6813664Y5900420D01*
X6795193Y5891184D01*
X6776720Y5891184D01*
X6850611Y6020493D02*
G01*
X6785955Y6020493D01*
X6715759Y6020493D02*
G01*
X6715759Y5826528D01*
X6715759Y5992784D02*
G01*
X6697286Y6011255D01*
X6678815Y6020493D01*
X6651104Y6020493D01*
X6632633Y6011255D01*
X6614159Y5992784D01*
X6604924Y5965075D01*
X6604924Y5946602D01*
X6614159Y5918893D01*
X6632633Y5900420D01*
X6651104Y5891184D01*
X6678815Y5891184D01*
X6697286Y5900420D01*
X6715759Y5918893D01*
X6442364Y5992784D02*
G01*
X6451600Y6011255D01*
X6479308Y6020493D01*
X6507017Y6020493D01*
X6534726Y6011255D01*
X6543964Y5992784D01*
X6534726Y5974311D01*
X6516255Y5965075D01*
X6470073Y5955837D01*
X6451600Y5946602D01*
X6442364Y5928128D01*
X6442364Y5918893D01*
X6451600Y5900420D01*
X6479308Y5891184D01*
X6507017Y5891184D01*
X6534726Y5900420D01*
X6543964Y5918893D01*
X6372166Y6002020D02*
G01*
X6381404Y5992784D01*
X6372166Y5983546D01*
X6362931Y5992784D01*
X6372166Y6002020D01*
X6372166Y5937364D02*
G01*
X6381404Y5928128D01*
X6372166Y5918893D01*
X6362931Y5928128D01*
X6372166Y5937364D01*
X6135715Y6122093D02*
G01*
X6301971Y5826528D01*
X5908502Y6122093D02*
G01*
X6074755Y5826528D01*
X5736704Y6020493D02*
G01*
X5736704Y5872711D01*
X5745942Y5845002D01*
X5755177Y5835764D01*
X5773651Y5826528D01*
X5801359Y5826528D01*
X5819833Y5835764D01*
X5736704Y5992784D02*
G01*
X5755177Y6011255D01*
X5773651Y6020493D01*
X5801359Y6020493D01*
X5819833Y6011255D01*
X5838304Y5992784D01*
X5847542Y5965075D01*
X5847542Y5946602D01*
X5838304Y5918893D01*
X5819833Y5900420D01*
X5801359Y5891184D01*
X5773651Y5891184D01*
X5755177Y5900420D01*
X5736704Y5918893D01*
X5675744Y6085146D02*
G01*
X5666508Y6075911D01*
X5657273Y6085146D01*
X5666508Y6094384D01*
X5675744Y6085146D01*
X5666508Y6020493D02*
G01*
X5666508Y5891184D01*
X5568604Y6085146D02*
G01*
X5568604Y5928128D01*
X5559366Y5900420D01*
X5540895Y5891184D01*
X5522422Y5891184D01*
X5596313Y6020493D02*
G01*
X5531657Y6020493D01*
X5461462Y6085146D02*
G01*
X5461462Y5891184D01*
X5461462Y5983546D02*
G01*
X5433753Y6011255D01*
X5415279Y6020493D01*
X5387571Y6020493D01*
X5369097Y6011255D01*
X5359862Y5983546D01*
X5359862Y5891184D01*
X5298902Y6020493D02*
G01*
X5298902Y5928128D01*
X5289664Y5900420D01*
X5271193Y5891184D01*
X5243484Y5891184D01*
X5225011Y5900420D01*
X5197302Y5928128D01*
X5197302Y6020493D02*
G01*
X5197302Y5891184D01*
X5136342Y6085146D02*
G01*
X5136342Y5891184D01*
X5136342Y5992784D02*
G01*
X5117868Y6011255D01*
X5099395Y6020493D01*
X5071686Y6020493D01*
X5053215Y6011255D01*
X5034742Y5992784D01*
X5025504Y5965075D01*
X5025504Y5946602D01*
X5034742Y5918893D01*
X5053215Y5900420D01*
X5071686Y5891184D01*
X5099395Y5891184D01*
X5117868Y5900420D01*
X5136342Y5918893D01*
X4955308Y5937364D02*
G01*
X4964544Y5928128D01*
X4955308Y5918893D01*
X4946073Y5928128D01*
X4955308Y5937364D01*
X4774275Y5992784D02*
G01*
X4792748Y6011255D01*
X4811222Y6020493D01*
X4838931Y6020493D01*
X4857404Y6011255D01*
X4875875Y5992784D01*
X4885113Y5965075D01*
X4885113Y5946602D01*
X4875875Y5918893D01*
X4857404Y5900420D01*
X4838931Y5891184D01*
X4811222Y5891184D01*
X4792748Y5900420D01*
X4774275Y5918893D01*
X4667135Y6020493D02*
G01*
X4685606Y6011255D01*
X4704079Y5992784D01*
X4713315Y5965075D01*
X4713315Y5946602D01*
X4704079Y5918893D01*
X4685606Y5900420D01*
X4667135Y5891184D01*
X4639424Y5891184D01*
X4620953Y5900420D01*
X4602479Y5918893D01*
X4593244Y5946602D01*
X4593244Y5965075D01*
X4602479Y5992784D01*
X4620953Y6011255D01*
X4639424Y6020493D01*
X4667135Y6020493D01*
X4532284Y6020493D02*
G01*
X4532284Y5891184D01*
X4532284Y5983546D02*
G01*
X4504575Y6011255D01*
X4486102Y6020493D01*
X4458393Y6020493D01*
X4439920Y6011255D01*
X4430684Y5983546D01*
X4430684Y5891184D01*
X4430684Y5983546D02*
G01*
X4402975Y6011255D01*
X4384502Y6020493D01*
X4356793Y6020493D01*
X4338320Y6011255D01*
X4329084Y5983546D01*
X4329084Y5891184D01*
X4101868Y6122093D02*
G01*
X4268124Y5826528D01*
X3930073Y5992784D02*
G01*
X3948544Y6011255D01*
X3967017Y6020493D01*
X3994726Y6020493D01*
X4013200Y6011255D01*
X4031673Y5992784D01*
X4040908Y5965075D01*
X4040908Y5946602D01*
X4031673Y5918893D01*
X4013200Y5900420D01*
X3994726Y5891184D01*
X3967017Y5891184D01*
X3948544Y5900420D01*
X3930073Y5918893D01*
X3822931Y6020493D02*
G01*
X3841404Y6011255D01*
X3859875Y5992784D01*
X3869113Y5965075D01*
X3869113Y5946602D01*
X3859875Y5918893D01*
X3841404Y5900420D01*
X3822931Y5891184D01*
X3795222Y5891184D01*
X3776748Y5900420D01*
X3758275Y5918893D01*
X3749040Y5946602D01*
X3749040Y5965075D01*
X3758275Y5992784D01*
X3776748Y6011255D01*
X3795222Y6020493D01*
X3822931Y6020493D01*
X3577244Y6085146D02*
G01*
X3577244Y5891184D01*
X3577244Y5992784D02*
G01*
X3595715Y6011255D01*
X3614188Y6020493D01*
X3641897Y6020493D01*
X3660371Y6011255D01*
X3678844Y5992784D01*
X3688079Y5965075D01*
X3688079Y5946602D01*
X3678844Y5918893D01*
X3660371Y5900420D01*
X3641897Y5891184D01*
X3614188Y5891184D01*
X3595715Y5900420D01*
X3577244Y5918893D01*
X3516284Y5965075D02*
G01*
X3405446Y5965075D01*
X3405446Y5983546D01*
X3414684Y6002020D01*
X3423920Y6011255D01*
X3442393Y6020493D01*
X3470102Y6020493D01*
X3488575Y6011255D01*
X3507046Y5992784D01*
X3516284Y5965075D01*
X3516284Y5946602D01*
X3507046Y5918893D01*
X3488575Y5900420D01*
X3470102Y5891184D01*
X3442393Y5891184D01*
X3423920Y5900420D01*
X3405446Y5918893D01*
X3233651Y5992784D02*
G01*
X3252124Y6011255D01*
X3270595Y6020493D01*
X3298304Y6020493D01*
X3316777Y6011255D01*
X3335251Y5992784D01*
X3344486Y5965075D01*
X3344486Y5946602D01*
X3335251Y5918893D01*
X3316777Y5900420D01*
X3298304Y5891184D01*
X3270595Y5891184D01*
X3252124Y5900420D01*
X3233651Y5918893D01*
X3126508Y6020493D02*
G01*
X3144982Y6011255D01*
X3163455Y5992784D01*
X3172691Y5965075D01*
X3172691Y5946602D01*
X3163455Y5918893D01*
X3144982Y5900420D01*
X3126508Y5891184D01*
X3098800Y5891184D01*
X3080326Y5900420D01*
X3061855Y5918893D01*
X3052617Y5946602D01*
X3052617Y5965075D01*
X3061855Y5992784D01*
X3080326Y6011255D01*
X3098800Y6020493D01*
X3126508Y6020493D01*
X2945475Y6020493D02*
G01*
X2963948Y6011255D01*
X2982422Y5992784D01*
X2991657Y5965075D01*
X2991657Y5946602D01*
X2982422Y5918893D01*
X2963948Y5900420D01*
X2945475Y5891184D01*
X2917766Y5891184D01*
X2899295Y5900420D01*
X2880822Y5918893D01*
X2871584Y5946602D01*
X2871584Y5965075D01*
X2880822Y5992784D01*
X2899295Y6011255D01*
X2917766Y6020493D01*
X2945475Y6020493D01*
X2810624Y6085146D02*
G01*
X2810624Y5891184D01*
X2718262Y6020493D02*
G01*
X2810624Y5928128D01*
X2773679Y5965075D02*
G01*
X2709024Y5891184D01*
X2648064Y5965075D02*
G01*
X2537228Y5965075D01*
X2537228Y5983546D01*
X2546464Y6002020D01*
X2555702Y6011255D01*
X2574175Y6020493D01*
X2601884Y6020493D01*
X2620355Y6011255D01*
X2638828Y5992784D01*
X2648064Y5965075D01*
X2648064Y5946602D01*
X2638828Y5918893D01*
X2620355Y5900420D01*
X2601884Y5891184D01*
X2574175Y5891184D01*
X2555702Y5900420D01*
X2537228Y5918893D01*
X2476268Y6020493D02*
G01*
X2476268Y5891184D01*
X2476268Y5965075D02*
G01*
X2467033Y5992784D01*
X2448559Y6011255D01*
X2430086Y6020493D01*
X2402377Y6020493D01*
X2341417Y6048202D02*
G01*
X2322944Y6057437D01*
X2295235Y6085146D01*
X2295235Y5891184D01*
X2068022Y6122093D02*
G01*
X2234275Y5826528D01*
X1896224Y6085146D02*
G01*
X1988588Y6085146D01*
X1997824Y6002020D01*
X1988588Y6011255D01*
X1960879Y6020493D01*
X1933171Y6020493D01*
X1905462Y6011255D01*
X1886988Y5992784D01*
X1877753Y5965075D01*
X1877753Y5946602D01*
X1886988Y5918893D01*
X1905462Y5900420D01*
X1933171Y5891184D01*
X1960879Y5891184D01*
X1988588Y5900420D01*
X1997824Y5909655D01*
X2007062Y5928128D01*
X1705955Y6085146D02*
G01*
X1798320Y6085146D01*
X1807555Y6002020D01*
X1798320Y6011255D01*
X1770611Y6020493D01*
X1742902Y6020493D01*
X1715193Y6011255D01*
X1696720Y5992784D01*
X1687484Y5965075D01*
X1687484Y5946602D01*
X1696720Y5918893D01*
X1715193Y5900420D01*
X1742902Y5891184D01*
X1770611Y5891184D01*
X1798320Y5900420D01*
X1807555Y5909655D01*
X1816793Y5928128D01*
X1515686Y6085146D02*
G01*
X1608051Y6085146D01*
X1617286Y6002020D01*
X1608051Y6011255D01*
X1580342Y6020493D01*
X1552633Y6020493D01*
X1524924Y6011255D01*
X1506451Y5992784D01*
X1497215Y5965075D01*
X1497215Y5946602D01*
X1506451Y5918893D01*
X1524924Y5900420D01*
X1552633Y5891184D01*
X1580342Y5891184D01*
X1608051Y5900420D01*
X1617286Y5909655D01*
X1626524Y5928128D01*
X1436255Y5974311D02*
G01*
X1270000Y5974311D01*
X1209039Y6085146D02*
G01*
X1209039Y5891184D01*
X1209039Y5992784D02*
G01*
X1190566Y6011255D01*
X1172095Y6020493D01*
X1144384Y6020493D01*
X1125913Y6011255D01*
X1107439Y5992784D01*
X1098204Y5965075D01*
X1098204Y5946602D01*
X1107439Y5918893D01*
X1125913Y5900420D01*
X1144384Y5891184D01*
X1172095Y5891184D01*
X1190566Y5900420D01*
X1209039Y5918893D01*
X1037244Y6085146D02*
G01*
X1037244Y5891184D01*
X976284Y6085146D02*
G01*
X967046Y6075911D01*
X957811Y6085146D01*
X967046Y6094384D01*
X976284Y6085146D01*
X967046Y6020493D02*
G01*
X967046Y5891184D01*
X896851Y6020493D02*
G01*
X896851Y5891184D01*
X896851Y5983546D02*
G01*
X869142Y6011255D01*
X850668Y6020493D01*
X822960Y6020493D01*
X804486Y6011255D01*
X795251Y5983546D01*
X795251Y5891184D01*
X734291Y6085146D02*
G01*
X734291Y5891184D01*
X641926Y6020493D02*
G01*
X734291Y5928128D01*
X697344Y5965075D02*
G01*
X632691Y5891184D01*
X562495Y6020493D02*
G01*
X507075Y5891184D01*
X451657Y6020493D02*
G01*
X507075Y5891184D01*
X525548Y5854237D01*
X544022Y5835764D01*
X562495Y5826528D01*
X571731Y5826528D01*
M02*
