G04 Layer: BottomSolderMaskLayer*
G04 EasyEDA v6.5.51, 2025-10-31 17:05:29*
G04 2c13a8696d224139b0bc35c9be8cf329,69688592e0df400aafdf5843d4e091a6,10*
G04 Gerber Generator version 0.2*
G04 Scale: 100 percent, Rotated: No, Reflected: No *
G04 Dimensions in millimeters *
G04 leading zeros omitted , absolute positions ,4 integer and 5 decimal *
%FSLAX45Y45*%
%MOMM*%

%AMMACRO1*4,1,8,-0.3092,-1.4322,-0.3504,-1.4228,-1.4322,0.309,-1.4228,0.3501,0.309,1.4322,0.3501,1.4228,1.4322,-0.3092,1.4228,-0.3504,-0.3092,-1.4322,0*%
%AMMACRO2*4,1,8,-0.8711,-0.9008,-0.9008,-0.8708,-0.9008,0.8711,-0.8711,0.9008,0.8708,0.9008,0.9008,0.8711,0.9008,-0.8708,0.8708,-0.9008,-0.8711,-0.9008,0*%
%AMMACRO3*4,1,8,-0.7196,-0.7493,-0.7493,-0.7193,-0.7493,0.7196,-0.7196,0.7493,0.7193,0.7493,0.7493,0.7196,0.7493,-0.7193,0.7193,-0.7493,-0.7196,-0.7493,0*%
%AMMACRO4*4,1,8,-0.7711,-0.8009,-0.8009,-0.7709,-0.8009,0.7711,-0.7711,0.8009,0.7709,0.8009,0.8009,0.7711,0.8009,-0.7709,0.7709,-0.8009,-0.7711,-0.8009,0*%
%ADD10C,1.4016*%
%ADD11C,1.9016*%
%ADD12MACRO1*%
%ADD13C,2.1016*%
%ADD14C,1.9000*%
%ADD15MACRO2*%
%ADD16C,1.5016*%
%ADD17C,1.7016*%
%ADD18C,0.0155*%
%ADD19C,1.6256*%
%ADD20MACRO3*%
%ADD21C,1.4986*%
%ADD22MACRO4*%
%ADD23C,1.6016*%

%LPD*%
D10*
G01*
X5412463Y8119757D03*
G01*
X5484136Y7933042D03*
D11*
G01*
X1122702Y6375895D03*
G01*
X1391897Y6806704D03*
D12*
G01*
X7674597Y6585216D03*
D13*
G01*
X7540000Y6800601D03*
D14*
G01*
X1057323Y3075330D03*
G01*
X1279476Y3198469D03*
G01*
X1423543Y2202942D03*
G01*
X1649856Y2318257D03*
G01*
X2040717Y1513586D03*
G01*
X2226482Y1686813D03*
G01*
X3001076Y929266D03*
G01*
X3120323Y1153533D03*
G01*
X4056529Y652028D03*
G01*
X4122270Y897371D03*
G01*
X5097675Y699736D03*
G01*
X5062324Y951263D03*
G01*
X6062774Y1016152D03*
G01*
X5951425Y1244447D03*
G01*
X6919213Y1608917D03*
G01*
X6745986Y1794682D03*
G01*
X7721427Y2374668D03*
G01*
X7518572Y2527531D03*
G01*
X8116100Y3121327D03*
G01*
X7885899Y3228672D03*
D15*
G01*
X6629412Y5410187D03*
D16*
G01*
X1443507Y4114800D03*
G01*
X2493492Y4114800D03*
D17*
G01*
X6955294Y4787900D03*
G01*
X8005305Y4787900D03*
D19*
G01*
X965194Y5308600D03*
G01*
X965194Y5054600D03*
G01*
X965194Y5562600D03*
D20*
G01*
X3721100Y3454400D03*
D21*
G01*
X3975100Y3454400D03*
G01*
X4229100Y3454400D03*
G01*
X4483100Y3454400D03*
G01*
X4737100Y3454400D03*
G01*
X4991100Y3454400D03*
G01*
X5245100Y3454400D03*
G01*
X5499100Y3454400D03*
G01*
X5499100Y4216400D03*
G01*
X5245100Y4216400D03*
G01*
X4991100Y4216400D03*
G01*
X4737100Y4216400D03*
G01*
X4483100Y4216400D03*
G01*
X4229100Y4216400D03*
G01*
X3975100Y4216400D03*
G01*
X3721100Y4216400D03*
D22*
G01*
X3619500Y6972300D03*
D23*
G01*
X3619500Y7226300D03*
G01*
X3619500Y7480300D03*
G01*
X3619500Y7734300D03*
G01*
X2857500Y6972300D03*
G01*
X2857500Y7226300D03*
G01*
X2857500Y7480300D03*
G01*
X2857500Y7734300D03*
M02*
