G04 Layer: TopLayer*
G04 EasyEDA v6.5.51, 2025-10-31 17:05:29*
G04 2c13a8696d224139b0bc35c9be8cf329,69688592e0df400aafdf5843d4e091a6,10*
G04 Gerber Generator version 0.2*
G04 Scale: 100 percent, Rotated: No, Reflected: No *
G04 Dimensions in millimeters *
G04 leading zeros omitted , absolute positions ,4 integer and 5 decimal *
%FSLAX45Y45*%
%MOMM*%

%AMMACRO1*21,1,$1,$2,0,0,$3*%
%ADD10C,0.3000*%
%ADD11C,1.3000*%
%ADD12C,1.8000*%
%ADD13MACRO1,2X2X122.0002*%
%ADD14C,2.0000*%
%ADD15R,1.7000X1.7000*%
%ADD16R,0.0134X1.7000*%
%ADD17C,1.4000*%
%ADD18C,1.6000*%
%ADD19C,1.5240*%
%ADD20R,1.3970X1.3970*%
%ADD21C,1.3970*%
%ADD22R,1.5000X1.5000*%
%ADD23C,1.5000*%
%ADD24C,0.6200*%

%LPD*%
D10*
X965200Y5308600D02*
G01*
X2857500Y7200900D01*
X2857500Y7226300D01*
X965194Y5308600D02*
G01*
X965194Y5054600D01*
X965200Y5562600D02*
G01*
X2857500Y7454900D01*
X2857500Y7480300D01*
X4991100Y3454400D02*
G01*
X5086268Y3454400D01*
X6745986Y1794682D01*
X4737100Y3454400D02*
G01*
X4737100Y2458773D01*
X5951425Y1244447D01*
X2794000Y2984500D02*
G01*
X2316099Y2984500D01*
X1649856Y2318257D01*
X2857500Y6972300D02*
G01*
X3619500Y7734300D01*
X2493492Y4114800D02*
G01*
X2857500Y4478807D01*
X2857500Y6972300D01*
X4229100Y4216400D02*
G01*
X4229100Y6870700D01*
X3619500Y7480300D01*
X5245100Y4216400D02*
G01*
X5257800Y4216400D01*
X5486400Y4445000D01*
X5842000Y4445000D01*
X6718300Y3568700D01*
X7023100Y3568700D01*
X7988300Y2628900D01*
X7950200Y2057400D01*
X6515100Y901700D01*
X6515100Y901700D01*
X5842000Y533400D01*
X5842000Y533400D01*
X5842000Y533400D01*
X4699000Y406400D01*
X4122270Y897371D01*
X3721100Y3454400D02*
G01*
X3721100Y2292487D01*
X5062324Y951263D01*
X8005305Y4787900D02*
G01*
X8005305Y4097794D01*
X8343900Y3759200D01*
X8343900Y3349127D01*
X8116100Y3121327D01*
X6629400Y5410200D02*
G01*
X5422900Y5410200D01*
X4229100Y4216400D01*
X6955297Y4787900D02*
G01*
X6955297Y5865891D01*
X7674609Y6585204D01*
X3619500Y7734300D02*
G01*
X3619500Y7734300D01*
X4953000Y6311900D01*
X7051293Y6311900D01*
X7539990Y6800595D01*
X5484113Y7932420D02*
G01*
X6887972Y7932420D01*
X7823200Y7188200D01*
X7912100Y6756400D01*
X7674609Y6585204D01*
X1443509Y4114800D02*
G01*
X965200Y4593109D01*
X965200Y5054600D01*
X2493492Y4114800D02*
G01*
X2595092Y4216400D01*
X3721100Y4216400D01*
X5499100Y4216400D02*
G01*
X5829703Y4216400D01*
X7518572Y2527531D01*
X4991100Y4216400D02*
G01*
X5003800Y4216400D01*
X5435600Y4648200D01*
X5994400Y4648200D01*
X6731000Y3911600D01*
X7202972Y3911600D01*
X7885899Y3228672D01*
D11*
G01*
X5412463Y8119757D03*
G01*
X5484136Y7933042D03*
D12*
G01*
X1122702Y6375895D03*
G01*
X1391897Y6806704D03*
D13*
G01*
X7674599Y6585197D03*
D14*
G01*
X7540000Y6800601D03*
D12*
G01*
X1057323Y3075330D03*
G01*
X1279476Y3198469D03*
G01*
X1423543Y2202942D03*
G01*
X1649856Y2318257D03*
G01*
X2040717Y1513586D03*
G01*
X2226482Y1686813D03*
G01*
X3001076Y929266D03*
G01*
X3120323Y1153533D03*
G01*
X4056529Y652028D03*
G01*
X4122270Y897371D03*
G01*
X5097675Y699736D03*
G01*
X5062324Y951263D03*
G01*
X6062774Y1016152D03*
G01*
X5951425Y1244447D03*
G01*
X6919213Y1608917D03*
G01*
X6745986Y1794682D03*
G01*
X7721427Y2374668D03*
G01*
X7518572Y2527531D03*
G01*
X8116100Y3121327D03*
G01*
X7885899Y3228672D03*
D15*
G01*
X6629400Y5410200D03*
D17*
G01*
X1443507Y4114800D03*
G01*
X2493492Y4114800D03*
D18*
G01*
X6955294Y4787900D03*
G01*
X8005305Y4787900D03*
D19*
G01*
X965194Y5308600D03*
G01*
X965194Y5054600D03*
G01*
X965194Y5562600D03*
D20*
G01*
X3721100Y3454400D03*
D21*
G01*
X3975100Y3454400D03*
G01*
X4229100Y3454400D03*
G01*
X4483100Y3454400D03*
G01*
X4737100Y3454400D03*
G01*
X4991100Y3454400D03*
G01*
X5245100Y3454400D03*
G01*
X5499100Y3454400D03*
G01*
X5499100Y4216400D03*
G01*
X5245100Y4216400D03*
G01*
X4991100Y4216400D03*
G01*
X4737100Y4216400D03*
G01*
X4483100Y4216400D03*
G01*
X4229100Y4216400D03*
G01*
X3975100Y4216400D03*
G01*
X3721100Y4216400D03*
D22*
G01*
X3619500Y6972300D03*
D23*
G01*
X3619500Y7226300D03*
G01*
X3619500Y7480300D03*
G01*
X3619500Y7734300D03*
G01*
X2857500Y6972300D03*
G01*
X2857500Y7226300D03*
G01*
X2857500Y7480300D03*
G01*
X2857500Y7734300D03*
D24*
G01*
X2794000Y2984500D03*
M02*
